<svg version="1.0" xmlns="http://www.w3.org/2000/svg"
 width="60.000000pt" height="60.000000pt" viewBox="0 0 60.000000 60.000000"
 preserveAspectRatio="xMidYMid meet">

<g transform="translate(0.000000,60.000000) scale(0.100000,-0.100000)"
fill="#000000" stroke="none">
<path d="M240 594 c-50 -8 -100 -25 -100 -35 0 -5 14 -36 30 -69 28 -56 31
-59 56 -50 14 6 36 10 48 10 21 0 24 6 30 65 9 88 8 89 -64 79z"/>
<path d="M371 511 c-23 -63 -26 -81 -12 -81 4 0 20 -11 35 -25 l27 -25 54 37
c30 21 54 43 55 49 0 19 -106 104 -131 104 -4 0 -16 -26 -28 -59z"/>
<path d="M50 433 c-53 -82 -62 -149 -34 -243 23 -76 100 -153 179 -176 76 -21
149 -14 216 22 51 28 115 96 105 112 -3 5 -23 17 -46 27 l-41 18 -32 -31 c-58
-56 -128 -67 -197 -32 -95 49 -117 167 -48 262 11 15 7 23 -22 53 -19 19 -38
35 -42 35 -5 0 -22 -21 -38 -47z"/>
<path d="M509 361 l-66 -24 5 -46 c3 -25 9 -49 14 -52 18 -11 120 -31 126 -24
10 9 6 125 -5 150 -8 21 -8 21 -74 -4z"/>
<path d="M235 369 c-35 -20 -55 -53 -55 -92 0 -101 139 -136 185 -47 22 43 18
76 -12 110 -31 34 -86 48 -118 29z"/>
</g>
</svg>
